<?xml version="1.0" standalone="no"?><!DOCTYPE svg PUBLIC "-//W3C//DTD SVG 1.1//EN" "http://www.w3.org/Graphics/SVG/1.1/DTD/svg11.dtd"><svg t="1776855717633" class="icon" viewBox="0 0 1024 1024" version="1.1" xmlns="http://www.w3.org/2000/svg" p-id="11866" xmlns:xlink="http://www.w3.org/1999/xlink" width="200" height="200"><path d="M479.465131 546.133333v238.933334c3.1744 130.628267-104.891733 238.933333-238.353067 238.933333-133.461333 0-238.318933-108.305067-238.318933-238.933333s108.032-238.933333 238.318933-238.933334h238.353067z m306.517333 0C919.477931 546.133333 1024.369664 654.4384 1024.369664 785.066667s-108.066133 238.933333-238.3872 238.933333c-133.461333 0-238.353067-108.305067-238.353067-238.933333v-238.933334h238.353067zM239.439531 0c131.9936 0.136533 238.933333 107.349333 239.104 239.616a239.616 239.616 0 0 1-147.592534 221.422933 238.660267 238.660267 0 0 1-260.539733-51.950933A240.0256 240.0256 0 0 1 18.562731 147.933867 239.069867 239.069867 0 0 1 239.439531 0z m546.542933 0C916.303531 0 1024.369664 108.305067 1024.369664 238.933333s-108.066133 238.933333-238.3872 238.933334h-238.353067V238.933333c0-133.802667 108.066133-238.933333 238.353067-238.933333z" fill="#026cbd" p-id="11867"></path></svg>